<?xml version="1.0" encoding="iso-8859-1"?>
<!-- Generator: Adobe Illustrator 19.0.0, SVG Export Plug-In . SVG Version: 6.00 Build 0)  -->
<svg version="1.1" id="Layer_1" xmlns="http://www.w3.org/2000/svg" xmlns:xlink="http://www.w3.org/1999/xlink" x="0px" y="0px"
	 viewBox="0 0 226.912 226.912" style="enable-background:new 0 0 226.912 226.912;" xml:space="preserve">
<g>
	<path style="fill:#FF7BAC;" d="M119.032,187.632c-0.275-2.2-0.321-4.492-0.504-6.554c-0.275-3.254-0.825-6.692-1.008-10.13
		c-0.183-2.75-0.137-5.5,0.458-8.113c0.321-1.283,1.146-1.971,2.108-2.2c0.092-0.55,0.412-1.054,1.1-1.467
		c26.08-15.813,66.689-29.288,75.902-59.768c-25.255-0.092-50.51-1.329-75.352-5.821c-1.329-0.229-1.879-1.238-1.879-2.292
		c-0.229-0.321-0.412-0.688-0.504-1.146c-0.596-2.979-0.871-5.959-0.871-8.984c0-21.267,14.209-42.305,33.689-50.968
		c23.926-10.679,48.493,2.383,63.71,21.772c17.096,21.68,12.834,53.902-2.613,75.627c-22.367,31.442-66.506,35.522-86.032,70.264
		c-1.558,2.704-4.308,2.383-6.004,0.779c-0.642-0.183-1.192-0.688-1.375-1.65C119.398,193.866,119.169,190.749,119.032,187.632z
		 M143.782,75.017c17.463-1.192,35.247-1.329,52.756-0.321c-2.979-14.209-9.579-27.272-27.547-22.23
		C156.845,55.858,147.862,63.97,143.782,75.017z"/>
	<path d="M104.594,199.595c-18.38-35.018-63.389-34.284-88.736-61.785c-19.25-20.855-20.03-51.793-7.425-76.269
		c12.375-23.972,34.101-40.426,61.785-35.889c28.051,4.583,40.197,29.38,39.647,55.277c0,2.063-0.138,4.033-0.321,6.096
		c0.596,2.979-1.146,6.692-5.042,6.829l0.046,0.092c-21.726,1.558-43.726,3.483-65.681,4.125
		c-10.588,45.789,64.26,25.713,69.256,62.564c0.642,0.229,1.237,0.642,1.65,1.375c1.558,2.75,2.2,5.913,2.475,9.167
		s0.183,6.6,0.412,9.671c0.367,4.446,1.604,10.13,0.458,14.759C114.769,200.695,107.298,204.82,104.594,199.595z M86.901,69.379
		c-4.95-10.725-13.017-18.746-27.409-17.876c-8.159,0.504-16.684,4.813-21.13,11.779c-1.879,2.888-2.796,6.188-3.667,9.488
		C51.884,70.662,69.713,69.7,86.901,69.379z"/>
</g>
<g>
</g>
<g>
</g>
<g>
</g>
<g>
</g>
<g>
</g>
<g>
</g>
<g>
</g>
<g>
</g>
<g>
</g>
<g>
</g>
<g>
</g>
<g>
</g>
<g>
</g>
<g>
</g>
<g>
</g>
</svg>
