<?xml version="1.0" encoding="iso-8859-1"?>
<!-- Generator: Adobe Illustrator 19.0.0, SVG Export Plug-In . SVG Version: 6.00 Build 0)  -->
<svg version="1.1" id="Layer_1" xmlns="http://www.w3.org/2000/svg" xmlns:xlink="http://www.w3.org/1999/xlink" x="0px" y="0px"
	 viewBox="0 0 295.238 295.238" style="enable-background:new 0 0 295.238 295.238;" xml:space="preserve">
<g>
	<g>
		<g>
			<path d="M9.524,180.952h57.143c5.252,0,9.524-4.271,9.524-9.524V9.524C76.19,4.271,71.919,0,66.667,0H9.524
				C4.271,0,0,4.271,0,9.524v161.905C0,176.681,4.271,180.952,9.524,180.952z M9.524,9.524h57.143l0.005,161.905H9.524V9.524z"/>
			<rect x="19.048" y="19.048" width="38.095" height="9.524"/>
			<rect x="19.048" y="38.095" width="38.095" height="9.524"/>
			<rect x="19.048" y="57.143" width="38.095" height="9.524"/>
			<path d="M38.095,128.571c-10.505,0-19.048,8.543-19.048,19.048s8.543,19.048,19.048,19.048c10.505,0,19.048-8.543,19.048-19.048
				S48.6,128.571,38.095,128.571z M38.095,157.143c-5.252,0-9.524-4.271-9.524-9.524c0-5.253,4.271-9.524,9.524-9.524
				c5.253,0,9.524,4.271,9.524,9.524C47.619,152.872,43.348,157.143,38.095,157.143z"/>
			<path d="M276.19,0H104.762C94.257,0,85.714,8.543,85.714,19.048v114.286c0,10.505,8.543,19.048,19.048,19.048h47.619v19.048
				h-23.81v9.524h23.81h76.19h23.81v-9.524h-23.81v-19.048h47.619c10.505,0,19.048-8.543,19.048-19.048V19.048
				C295.238,8.543,286.695,0,276.19,0z M219.048,171.429h-57.143v-19.048h57.143V171.429z M285.714,133.333
				c0,5.253-4.271,9.524-9.524,9.524h-47.619h-76.19h-47.619c-5.252,0-9.524-4.271-9.524-9.524v-4.762h190.476V133.333z
				 M285.714,119.048H95.238v-100c0-5.253,4.272-9.524,9.524-9.524H276.19c5.252,0,9.524,4.271,9.524,9.524V119.048z"/>
			<path d="M285.714,190.476H9.524C4.271,190.476,0,194.748,0,200v85.714c0,5.252,4.271,9.524,9.524,9.524h276.19
				c5.252,0,9.524-4.271,9.524-9.524V200C295.238,194.748,290.967,190.476,285.714,190.476z M9.524,285.714V200h276.19l0.005,85.714
				H9.524z"/>
			<rect x="23.81" y="209.524" width="19.048" height="9.524"/>
			<rect x="52.381" y="209.524" width="19.048" height="9.524"/>
			<rect x="80.952" y="209.524" width="19.048" height="9.524"/>
			<rect x="109.524" y="209.524" width="19.048" height="9.524"/>
			<rect x="138.095" y="209.524" width="19.048" height="9.524"/>
			<rect x="166.667" y="209.524" width="19.048" height="9.524"/>
			<rect x="195.238" y="209.524" width="19.048" height="9.524"/>
			<rect x="223.81" y="209.524" width="19.048" height="9.524"/>
			<rect x="252.381" y="209.524" width="19.048" height="9.524"/>
			<rect x="23.81" y="228.571" width="19.048" height="9.524"/>
			<rect x="52.381" y="228.571" width="19.048" height="9.524"/>
			<rect x="80.952" y="228.571" width="19.048" height="9.524"/>
			<rect x="109.524" y="228.571" width="19.048" height="9.524"/>
			<rect x="138.095" y="228.571" width="19.048" height="9.524"/>
			<rect x="166.667" y="228.571" width="19.048" height="9.524"/>
			<rect x="195.238" y="228.571" width="19.048" height="9.524"/>
			<rect x="223.81" y="228.571" width="19.048" height="9.524"/>
			<rect x="252.381" y="228.571" width="19.048" height="9.524"/>
			<rect x="23.81" y="247.619" width="19.048" height="9.524"/>
			<rect x="52.381" y="247.619" width="19.048" height="9.524"/>
			<rect x="80.952" y="247.619" width="19.048" height="9.524"/>
			<rect x="109.524" y="247.619" width="19.048" height="9.524"/>
			<rect x="138.095" y="247.619" width="19.048" height="9.524"/>
			<rect x="166.667" y="247.619" width="19.048" height="9.524"/>
			<rect x="195.238" y="247.619" width="19.048" height="9.524"/>
			<rect x="223.81" y="247.619" width="19.048" height="9.524"/>
			<rect x="252.381" y="247.619" width="19.048" height="9.524"/>
			<rect x="23.81" y="266.667" width="19.048" height="9.524"/>
			<rect x="52.381" y="266.667" width="19.048" height="9.524"/>
			<rect x="80.952" y="266.667" width="133.333" height="9.524"/>
			<rect x="223.81" y="266.667" width="19.048" height="9.524"/>
			<rect x="252.381" y="266.667" width="19.048" height="9.524"/>
			<path d="M214.286,95.238h-4.762v-7.414c0-8.771-3.414-17.019-9.619-23.224l-9.429-9.429l-9.429,9.429
				c-6.205,6.205-9.619,14.452-9.619,23.224v7.414h-4.762v-9.524h-9.524v19.048h14.286v4.762h0.001h38.095v-4.762h14.286V85.714
				h-9.524V95.238z M200,100h-19.048V87.824c0-6.229,2.424-12.086,6.829-16.49l2.695-2.695l2.695,2.695
				c4.405,4.405,6.829,10.262,6.829,16.49V100z"/>
			<rect x="214.286" y="66.667" width="9.524" height="9.524"/>
			<rect x="214.286" y="47.619" width="9.524" height="9.524"/>
			<rect x="214.286" y="28.571" width="9.524" height="9.524"/>
			<rect x="157.143" y="66.667" width="9.524" height="9.524"/>
			<rect x="157.143" y="47.619" width="9.524" height="9.524"/>
			<rect x="157.143" y="28.571" width="9.524" height="9.524"/>
			<polygon points="114.286,47.619 123.81,33.333 104.762,33.333 			"/>
			<polygon points="261.905,90.476 271.429,76.19 252.381,76.19 			"/>
			<circle cx="242.857" cy="23.81" r="4.762"/>
		</g>
	</g>
</g>
<g>
</g>
<g>
</g>
<g>
</g>
<g>
</g>
<g>
</g>
<g>
</g>
<g>
</g>
<g>
</g>
<g>
</g>
<g>
</g>
<g>
</g>
<g>
</g>
<g>
</g>
<g>
</g>
<g>
</g>
</svg>
