<svg id="LaManuFull_RVB_white" xmlns="http://www.w3.org/2000/svg" width="149.971" height="69.264" viewBox="0 0 149.971 69.264">
  <g id="Groupe_1" data-name="Groupe 1" transform="translate(62.682 48.191)">
    <path id="Tracé_6" data-name="Tracé 6" d="M155.16,120.307h2.945v.594H155.81v2.662h1.883v.59H155.81v2.967h2.295v.607H155.16Zm1.753-1.917h.747l-.949,1.315h-.525Z" transform="translate(-155.16 -118.39)"/>
    <path id="Tracé_7" data-name="Tracé 7" d="M164.19,128.722v-4.144a1.62,1.62,0,1,1,3.232,0v.769H166.8v-.814a.974.974,0,0,0-.99-1.111c-.586,0-.957.407-.957,1.111v4.233c0,.716.368,1.1.957,1.1a.964.964,0,0,0,.99-1.1v-1.009h.618v.965a1.621,1.621,0,1,1-3.232,0Z" transform="translate(-160.542 -121.029)"/>
    <path id="Tracé_8" data-name="Tracé 8" d="M174.18,128.657v-4.005c0-1.176.59-1.811,1.652-1.811s1.652.635,1.652,1.811v4.005c0,1.176-.59,1.815-1.652,1.815S174.18,129.825,174.18,128.657Zm2.65.045v-4.091c0-.814-.355-1.176-1-1.176s-1,.383-1,1.176V128.7c0,.794.356,1.164,1,1.164s1-.37,1-1.164Z" transform="translate(-166.496 -121.029)"/>
    <path id="Tracé_9" data-name="Tracé 9" d="M184.8,123.1h.654v6.814h2.2v.607H184.8Z" transform="translate(-172.826 -121.183)"/>
    <path id="Tracé_10" data-name="Tracé 10" d="M193.68,123.1h2.957v.594h-2.295v2.662h1.891v.59h-1.883v2.967h2.287v.607h-2.945Z" transform="translate(-178.119 -121.183)"/>
    <path id="Tracé_11" data-name="Tracé 11" d="M206.634,128.716v-.407h.622v.456c0,.741.38,1.111.99,1.111s.986-.37.986-1.123-.295-1.176-1.212-1.905c-1.042-.839-1.39-1.421-1.39-2.267a1.533,1.533,0,0,1,1.616-1.73c1.026,0,1.588.647,1.588,1.758v.3h-.618v-.338c0-.741-.36-1.123-.97-1.123s-.966.407-.966,1.091.315,1.115,1.212,1.856c1.042.847,1.369,1.421,1.369,2.32a1.553,1.553,0,0,1-1.64,1.771C207.171,130.482,206.634,129.831,206.634,128.716Z" transform="translate(-185.837 -121.035)"/>
    <path id="Tracé_12" data-name="Tracé 12" d="M216.67,128.811v-5.7h.65v5.756c0,.794.356,1.164.99,1.164s.986-.37.986-1.164V123.1h.634v5.7c0,1.168-.57,1.815-1.616,1.815S216.67,129.979,216.67,128.811Z" transform="translate(-191.821 -121.183)"/>
    <path id="Tracé_13" data-name="Tracé 13" d="M227.29,123.1h1.555c1.123,0,1.64.582,1.64,1.783v.59c0,1.2-.517,1.783-1.64,1.783h-.9v3.256h-.65Zm1.555,3.55c.683,0,.99-.305.99-1.144v-.668c0-.814-.307-1.144-.99-1.144h-.9v2.955Z" transform="translate(-198.151 -121.183)"/>
    <path id="Tracé_14" data-name="Tracé 14" d="M237.23,120.307h2.945v.594H237.88v2.662h1.883v.59H237.88v2.967h2.295v.607H237.23Zm1.757-1.917h.747l-.958,1.315h-.529Z" transform="translate(-204.075 -118.39)"/>
    <path id="Tracé_15" data-name="Tracé 15" d="M246.44,123.1h1.567c1.147,0,1.616.521,1.616,1.685v.456c0,.814-.283,1.327-.893,1.494v.02c.638.151.893.647.893,1.526v1.347a2.951,2.951,0,0,0,.105.891h-.638a3.4,3.4,0,0,1-.1-.9v-1.368c0-.855-.315-1.152-1.091-1.152h-.808v3.423h-.654Zm1.442,3.383c.747,0,1.1-.317,1.1-1.123v-.521c0-.814-.283-1.144-1-1.144h-.893v2.788Z" transform="translate(-209.564 -121.183)"/>
    <path id="Tracé_16" data-name="Tracé 16" d="M256.83,123.1h.65v7.421h-.65Z" transform="translate(-215.757 -121.183)"/>
    <path id="Tracé_17" data-name="Tracé 17" d="M261.1,123.1h2.945v.594H261.75v2.662h1.883v.59H261.75v2.967h2.295v.607H261.1Z" transform="translate(-218.302 -121.183)"/>
    <path id="Tracé_18" data-name="Tracé 18" d="M270.24,128.811v-5.7h.65v5.756c0,.794.356,1.164.99,1.164s.986-.37.986-1.164V123.1h.63v5.7c0,1.168-.566,1.815-1.616,1.815S270.24,129.979,270.24,128.811Z" transform="translate(-223.749 -121.183)"/>
    <path id="Tracé_19" data-name="Tracé 19" d="M280.824,123.1h1.563c1.147,0,1.616.521,1.616,1.685v.456c0,.814-.283,1.327-.893,1.494v.02c.638.151.893.647.893,1.526v1.347a2.95,2.95,0,0,0,.1.891h-.663a3.441,3.441,0,0,1-.093-.9v-1.368c0-.855-.319-1.152-1.095-1.152h-.808v3.423h-.65Zm1.438,3.383c.747,0,1.107-.317,1.107-1.123v-.521c0-.814-.287-1.144-1-1.144h-.893v2.788Z" transform="translate(-230.043 -121.183)"/>
    <path id="Tracé_20" data-name="Tracé 20" d="M291.24,123.1h2.945v.594h-2.291v2.662h1.883v.59h-1.883v2.967h2.291v.607H291.24Z" transform="translate(-236.266 -121.183)"/>
    <path id="Tracé_21" data-name="Tracé 21" d="M155.16,149.13h1.64c1.123,0,1.64.586,1.64,1.783v3.863c0,1.221-.517,1.791-1.64,1.791h-1.64Zm1.616,6.814c.683,0,1-.318,1-1.156v-3.9c0-.839-.315-1.168-1-1.168H155.8v6.22Z" transform="translate(-155.16 -136.617)"/>
    <path id="Tracé_22" data-name="Tracé 22" d="M165.7,149.13h2.949v.594h-2.295v2.662h1.891v.59h-1.883v2.967h2.287v.607H165.7Z" transform="translate(-161.442 -136.617)"/>
    <path id="Tracé_23" data-name="Tracé 23" d="M174.42,154.756v-.407h.638v.456c0,.741.38,1.111.99,1.111s.99-.37.99-1.123-.295-1.176-1.212-1.9c-1.042-.839-1.39-1.421-1.39-2.267a1.533,1.533,0,0,1,1.616-1.73c1.026,0,1.588.647,1.588,1.758v.3h-.622v-.338c0-.741-.355-1.123-.966-1.123s-.97.407-.97,1.091.315,1.115,1.232,1.856c1.042.847,1.365,1.421,1.365,2.32a1.636,1.636,0,1,1-3.26,0Z" transform="translate(-166.639 -136.475)"/>
    <path id="Tracé_24" data-name="Tracé 24" d="M188.84,149.13h.978l1.232,6.2,1.212-6.2h.978v7.421H192.6v-6.464l-1.273,6.464h-.57l-1.313-6.464v6.464h-.59Z" transform="translate(-175.234 -136.617)"/>
    <path id="Tracé_25" data-name="Tracé 25" d="M202.406,146.337h2.945v.594H203.04v2.662h1.883v.59H203.04v2.967h2.295v.607H202.39Zm1.753-1.917h.747l-.957,1.315h-.505Z" transform="translate(-183.31 -133.824)"/>
    <path id="Tracé_26" data-name="Tracé 26" d="M212.155,149.724H210.81v-.594h3.353v.594h-1.357v6.826h-.65Z" transform="translate(-188.328 -136.617)"/>
    <path id="Tracé_27" data-name="Tracé 27" d="M220.93,149.13h.655v7.421h-.655Z" transform="translate(-194.36 -136.617)"/>
    <path id="Tracé_28" data-name="Tracé 28" d="M225.2,149.13h2.945v.594h-2.291v2.662h1.883v.59h-1.883v2.967h2.291v.607H225.2Z" transform="translate(-196.905 -136.617)"/>
    <path id="Tracé_29" data-name="Tracé 29" d="M234.42,149.13h1.567c1.143,0,1.616.521,1.616,1.685v.456c0,.814-.283,1.327-.893,1.494v.02c.642.151.893.647.893,1.526v1.347a2.954,2.954,0,0,0,.105.891h-.63a3.44,3.44,0,0,1-.093-.9v-1.364c0-.859-.315-1.156-1.095-1.156h-.808v3.423h-.65Zm1.438,3.383c.747,0,1.107-.317,1.107-1.123v-.521c0-.814-.283-1.144-1-1.144h-.9v2.788Z" transform="translate(-202.4 -136.617)"/>
    <path id="Tracé_30" data-name="Tracé 30" d="M244.26,154.756v-.407h.618v.456c0,.741.38,1.111.99,1.111s.99-.37.99-1.123-.295-1.176-1.212-1.9c-1.038-.839-1.386-1.421-1.386-2.267a1.531,1.531,0,0,1,1.616-1.73c1.03,0,1.588.647,1.588,1.758v.3h-.622v-.338c0-.741-.356-1.123-.966-1.123s-.97.407-.97,1.091.315,1.115,1.212,1.856c1.038.847,1.365,1.421,1.365,2.32a1.553,1.553,0,0,1-1.64,1.771C244.793,156.522,244.26,155.855,244.26,154.756Z" transform="translate(-208.265 -136.475)"/>
    <path id="Tracé_31" data-name="Tracé 31" d="M258.68,149.13h1.64c1.123,0,1.64.586,1.64,1.783v3.863c0,1.221-.517,1.791-1.64,1.791h-1.64Zm1.616,6.814c.687,0,1-.318,1-1.156v-3.9c0-.839-.315-1.168-1-1.168h-.978v6.22Z" transform="translate(-216.86 -136.617)"/>
    <path id="Tracé_32" data-name="Tracé 32" d="M269.12,154.845v-5.7h.65V154.9c0,.794.36,1.164.99,1.164s.986-.37.986-1.164V149.13h.634v5.7c0,1.164-.57,1.811-1.616,1.811S269.12,156,269.12,154.845Z" transform="translate(-223.082 -136.617)"/>
    <path id="Tracé_33" data-name="Tracé 33" d="M284,149.13h.865l1.911,5.735V149.13h.61v7.421h-.679l-2.093-6.326v6.326H284Z" transform="translate(-231.951 -136.617)"/>
    <path id="Tracé_34" data-name="Tracé 34" d="M294.94,154.845v-5.7h.65V154.9c0,.794.36,1.164.99,1.164s.99-.37.99-1.164V149.13h.626v5.7c0,1.164-.57,1.811-1.616,1.811S294.94,156,294.94,154.845Z" transform="translate(-238.471 -136.617)"/>
    <path id="Tracé_35" data-name="Tracé 35" d="M305.548,149.13h.986l1.212,6.2,1.212-6.2h.978v7.421h-.614v-6.464l-1.3,6.464h-.57l-1.321-6.464v6.464h-.59Z" transform="translate(-244.789 -136.617)"/>
    <path id="Tracé_36" data-name="Tracé 36" d="M319.15,146.337h2.945v.594H319.8v2.662h1.883v.59H319.8v2.967h2.295v.607H319.15Zm1.753-1.917h.747l-.945,1.315h-.525Z" transform="translate(-252.901 -133.824)"/>
    <path id="Tracé_37" data-name="Tracé 37" d="M328.33,149.13H329.9c1.147,0,1.616.521,1.616,1.685v.456c0,.814-.283,1.327-.893,1.494v.02c.642.151.893.647.893,1.526v1.347a3.086,3.086,0,0,0,.1.891h-.662a3.433,3.433,0,0,1-.093-.9v-1.364c0-.859-.315-1.156-1.095-1.156h-.808v3.423h-.65Zm1.442,3.383c.747,0,1.1-.317,1.1-1.123v-.521c0-.814-.283-1.144-1-1.144h-.885v2.788Z" transform="translate(-258.36 -136.617)"/>
    <path id="Tracé_38" data-name="Tracé 38" d="M338.75,149.13h.65v7.421h-.65Z" transform="translate(-264.583 -136.617)"/>
    <path id="Tracé_39" data-name="Tracé 39" d="M346.385,156.49v.594h-.21a.934.934,0,0,1-1-.712,1.81,1.81,0,0,1-.715.13c-1.058,0-1.648-.639-1.648-1.811v-4.005c0-1.176.59-1.815,1.648-1.815s1.652.639,1.652,1.815v4.005a1.857,1.857,0,0,1-.493,1.417c.093.277.283.383.618.383Zm-1.927-.594c.642,0,1-.37,1-1.164v-4.091c0-.794-.359-1.176-1-1.176s-1,.383-1,1.176v4.091C343.46,155.525,343.82,155.9,344.458,155.9Z" transform="translate(-267.002 -136.463)"/>
    <path id="Tracé_40" data-name="Tracé 40" d="M353.32,154.845v-5.7h.654V154.9c0,.794.355,1.164.986,1.164s.99-.37.99-1.164V149.13h.63v5.7c0,1.164-.566,1.811-1.616,1.811S353.32,156,353.32,154.845Z" transform="translate(-273.266 -136.617)"/>
    <path id="Tracé_41" data-name="Tracé 41" d="M363.94,149.13h2.945v.594h-2.291v2.662h1.883v.59h-1.883v2.967h2.291v.607H363.94Z" transform="translate(-279.596 -136.617)"/>
  </g>
  <g id="logotype" transform="translate(0 49.286)">
    <path id="Tracé_42" data-name="Tracé 42" d="M0,121.08v19.978H59.054V121.08ZM38.508,123.4a.06.06,0,0,1-.032,0h0Zm-1.143,1.506ZM8.682,138.457h-5.7V124.092H4.848v13.974H8.706Zm5.712,0-.658-3.313H10.366L9.7,138.457H9l2.682-14.365h1.87l2.711,14.365Zm16.988,0H29.564v-10.9l-3.422,9.769-3.692-9.769v10.905h-.755V124.092h1.5l3.555,9.83,3.422-9.83h1.212Zm6.27,0-.675-3.313H33.624l-.675,3.313h-.691l2.678-14.365h1.87l2.715,14.365Zm9.974.285h-.234l-6.233-12.427v12.122H40.35V124.092h1.616l4.848,9.769v-9.769h.772Zm8.427-3.309a3.547,3.547,0,0,1-.4,1.807,2.652,2.652,0,0,1-.994.993,3.536,3.536,0,0,1-1.341.427,13.25,13.25,0,0,1-1.422.081q-3.123,0-3.119-2.764V124.092h1.87v11.63a2.109,2.109,0,0,0,.218.948,2.727,2.727,0,0,0,1.426,1.319,2.633,2.633,0,0,0,1,.2,1.8,1.8,0,0,0,1.458-.611,2.393,2.393,0,0,0,.513-1.6V124.092h.776Z" transform="translate(0 -121.08)"/>
    <path id="Tracé_43" data-name="Tracé 43" d="M83.52,141.473h3.066L85.12,132.44Z" transform="translate(-49.779 -127.816)"/>
    <path id="Tracé_44" data-name="Tracé 44" d="M25.96,141.473h3.066L27.56,132.44Z" transform="translate(-15.473 -127.816)"/>
  </g>
  <g id="Groupe_2" data-name="Groupe 2" transform="translate(76.313)">
    <path id="Tracé_45" data-name="Tracé 45" d="M192.449,33.035l-.489-.761.848-.554.549.855-.909.46" transform="translate(-190.724 -18.808)"/>
    <path id="Tracé_46" data-name="Tracé 46" d="M189.389,28.339l-.489-.765.856-.554.549.855-.917.464" transform="translate(-188.9 -16.021)"/>
    <path id="Tracé_47" data-name="Tracé 47" d="M200.931,23.919l-.5-.765.86-.554.545.855-.9.464" transform="translate(-195.772 -13.401)"/>
    <path id="Tracé_48" data-name="Tracé 48" d="M200.931,16.359l-.5-.765.86-.554.545.855-.9.464" transform="translate(-195.772 -8.918)"/>
    <path id="Tracé_49" data-name="Tracé 49" d="M212.567,4.1l-.5-.765.856-.562.549.863-.909.464" transform="translate(-202.71 -1.642)"/>
    <path id="Tracé_50" data-name="Tracé 50" d="M220.309,5.227l-.489-.761.848-.566.562.867-.921.46" transform="translate(-207.329 -2.312)"/>
    <path id="Tracé_51" data-name="Tracé 51" d="M193.169,25.449l-.489-.765.848-.554.558.855-.917.464" transform="translate(-191.153 -14.308)"/>
    <path id="Tracé_52" data-name="Tracé 52" d="M194.161,6.429l-.5-.765.861-.554.549.855-.909.464" transform="translate(-191.737 -3.03)"/>
    <path id="Tracé_53" data-name="Tracé 53" d="M209.689,15.017l-.489-.765.848-.562.562.863-.921.464" transform="translate(-200.999 -8.117)"/>
    <path id="Tracé_54" data-name="Tracé 54" d="M214.341,21.995l-.5-.753.86-.562.549.851-.909.464" transform="translate(-203.765 -12.262)"/>
    <path id="Tracé_55" data-name="Tracé 55" d="M198.819,13.407l-.489-.765.848-.562.562.855-.921.472" transform="translate(-194.52 -7.163)"/>
    <path id="Tracé_56" data-name="Tracé 56" d="M200.209,7.569,199.72,6.8l.856-.554.549.855-.917.464" transform="translate(-195.349 -3.706)"/>
    <path id="Tracé_57" data-name="Tracé 57" d="M202.537,11.049l-.5-.765.856-.554.549.855-.909.464" transform="translate(-196.732 -5.769)"/>
    <path id="Tracé_58" data-name="Tracé 58" d="M209.519,21.525l-.489-.761.848-.554.557.855-.917.46" transform="translate(-200.898 -11.983)"/>
    <path id="Tracé_59" data-name="Tracé 59" d="M207.2,18.027l-.489-.765.848-.562.557.863-.917.464" transform="translate(-199.515 -9.902)"/>
    <path id="Tracé_60" data-name="Tracé 60" d="M211.851,25.009l-.5-.765.856-.554.549.855-.9.464" transform="translate(-202.281 -14.047)"/>
    <path id="Tracé_61" data-name="Tracé 61" d="M214.467,14.015l-.5-.765.856-.55.549.855-.909.46" transform="translate(-203.842 -7.53)"/>
    <path id="Tracé_62" data-name="Tracé 62" d="M208.837,10.911l-.5-.765.856-.566.549.867-.909.464" transform="translate(-200.487 -5.68)"/>
    <path id="Tracé_63" data-name="Tracé 63" d="M220.309,16.7l-.489-.765.848-.562.562.863-.921.464" transform="translate(-207.329 -9.114)"/>
    <path id="Tracé_64" data-name="Tracé 64" d="M205.249,1.319,204.76.562,205.6,0l.562.855-.917.464" transform="translate(-198.353)"/>
    <path id="Tracé_65" data-name="Tracé 65" d="M196.949,32.295l-.489-.761.848-.554.558.855-.917.46" transform="translate(-193.406 -18.369)"/>
    <path id="Tracé_66" data-name="Tracé 66" d="M193.817,13.1l-.5-.765.856-.554.549.855-.909.464" transform="translate(-191.534 -6.985)"/>
    <path id="Tracé_67" data-name="Tracé 67" d="M199.941,30.245l-.5-.761.861-.554.549.851-.909.464" transform="translate(-195.182 -17.154)"/>
    <path id="Tracé_68" data-name="Tracé 68" d="M198.479,20.077l-.489-.765.848-.562.557.863-.917.464" transform="translate(-194.318 -11.118)"/>
    <path id="Tracé_69" data-name="Tracé 69" d="M198.017,27.255l-.5-.761.856-.554.549.855-.909.46" transform="translate(-194.038 -15.381)"/>
    <path id="Tracé_70" data-name="Tracé 70" d="M193.817,20.647l-.5-.765.856-.562.549.863-.909.464" transform="translate(-191.534 -11.456)"/>
    <path id="Tracé_71" data-name="Tracé 71" d="M205.589,23.337l-.489-.765.848-.562.557.863-.917.464" transform="translate(-198.555 -13.051)"/>
    <path id="Tracé_72" data-name="Tracé 72" d="M205.131,30.515l-.5-.761.861-.554.549.855-.909.46" transform="translate(-198.275 -17.314)"/>
  </g>
  <path id="Tracé_73" data-name="Tracé 73" d="M108.844,71.753h-.4V51.522l6.137,1.494V67.707h9.352V63.136h3.159l.574-21.59h4.929l1.172,21.59h5.268L139.7,37.89h4.929L145.986,67.9l-.4.02L144.241,38.3h-4.149l-.671,25.246h-6.04l-1.176-21.59h-4.149l-.578,21.59h-3.147v4.571h-10.16V53.334l-5.329-1.294Z" transform="translate(-64.632 -22.467)"/>
</svg>
