<?xml version="1.0" encoding="UTF-8" standalone="no"?>
<!-- Created with Inkscape (http://www.inkscape.org/) -->

<svg
   xmlns:dc="http://purl.org/dc/elements/1.1/"
   xmlns:cc="http://creativecommons.org/ns#"
   xmlns:rdf="http://www.w3.org/1999/02/22-rdf-syntax-ns#"
   xmlns:svg="http://www.w3.org/2000/svg"
   xmlns="http://www.w3.org/2000/svg"
   xmlns:sodipodi="http://sodipodi.sourceforge.net/DTD/sodipodi-0.dtd"
   xmlns:inkscape="http://www.inkscape.org/namespaces/inkscape"
   width="37.131565mm"
   height="42.537754mm"
   viewBox="0 0 37.131565 42.537754"
   version="1.1"
   id="svg404"
   inkscape:version="0.92.1 r15371"
   sodipodi:docname="Logo Amiens.svg">
  <defs
     id="defs398">
    <clipPath
       clipPathUnits="userSpaceOnUse"
       id="clipPath204">
      <path
         d="m 297.625,364.973 h 105.25 v 120.526 h -105.25 z"
         id="path202"
         inkscape:connector-curvature="0" />
    </clipPath>
    <clipPath
       clipPathUnits="userSpaceOnUse"
       id="clipPath188">
      <path
         d="m 297.625,364.973 h 105.25 v 120.526 h -105.25 z"
         id="path186"
         inkscape:connector-curvature="0" />
    </clipPath>
  </defs>
  <sodipodi:namedview
     id="base"
     pagecolor="#ffffff"
     bordercolor="#666666"
     borderopacity="1.0"
     inkscape:pageopacity="0.0"
     inkscape:pageshadow="2"
     inkscape:zoom="0.35"
     inkscape:cx="-624.11583"
     inkscape:cy="3.2434635"
     inkscape:document-units="mm"
     inkscape:current-layer="layer1"
     showgrid="false"
     fit-margin-top="0"
     fit-margin-left="0"
     fit-margin-right="0"
     fit-margin-bottom="0"
     inkscape:window-width="1920"
     inkscape:window-height="1023"
     inkscape:window-x="1920"
     inkscape:window-y="0"
     inkscape:window-maximized="1" />
  <metadata
     id="metadata401">
    <rdf:RDF>
      <cc:Work
         rdf:about="">
        <dc:format>image/svg+xml</dc:format>
        <dc:type
           rdf:resource="http://purl.org/dc/dcmitype/StillImage" />
        <dc:title></dc:title>
      </cc:Work>
    </rdf:RDF>
  </metadata>
  <g
     inkscape:label="Calque 1"
     inkscape:groupmode="layer"
     id="layer1"
     transform="translate(-96.33898,-107.15375)">
    <g
       id="g178"
       transform="matrix(0.01185866,0,0,0.01173487,-8.654809,278.42699)">
      <path
         d="m 8853.765,-14593.107 h 3131.001 v 3622.769 H 8853.765 Z"
         style="fill:#ffffff;fill-opacity:0;fill-rule:nonzero;stroke:none"
         id="path180"
         inkscape:connector-curvature="0" />
    </g>
    <g
       transform="matrix(0.35277777,0,0,-0.35277777,-8.654799,278.427)"
       id="g182">
      <g
         id="g184"
         clip-path="url(#clipPath188)">
        <g
           id="g190"
           transform="matrix(0.0336151,0,0,-0.0332642,-6.1e-5,0)">
          <path
             d="m -2044.414,-21596.328 h 24926 v 17628 h -24926 z"
             style="fill:none;stroke:#ffffff;stroke-width:1;stroke-linecap:butt;stroke-linejoin:miter;stroke-miterlimit:10;stroke-dasharray:none;stroke-opacity:0"
             id="path192"
             inkscape:connector-curvature="0" />
        </g>
      </g>
    </g>
    <g
       id="g194"
       transform="matrix(0.01185866,0,0,0.01173487,-8.654809,278.42699)">
      <path
         d="m 8853.771,-14593.107 h 3131.001 v 3622.769 H 8853.771 Z"
         style="fill:#ffffff;fill-opacity:0;fill-rule:nonzero;stroke:none"
         id="path196"
         inkscape:connector-curvature="0" />
    </g>
    <g
       transform="matrix(0.35277777,0,0,-0.35277777,-8.654799,278.427)"
       id="g198">
      <g
         id="g200"
         clip-path="url(#clipPath204)">
        <g
           id="g206"
           transform="matrix(0.0336151,0,0,-0.0332642,-1.221e-4,-6.1e-5)">
          <path
             d="m -2044.414,-21596.328 h 24926 v 17628 h -24926 z"
             style="fill:none;stroke:#ffffff;stroke-width:1;stroke-linecap:butt;stroke-linejoin:miter;stroke-miterlimit:10;stroke-dasharray:none;stroke-opacity:0"
             id="path208"
             inkscape:connector-curvature="0" />
        </g>
      </g>
    </g>
    <g
       id="g210"
       transform="matrix(0.01185866,0,0,0.01173487,-8.654859,278.42703)">
      <g
         id="g212"
         transform="translate(9441.584,-12171.328)">
        <path
           d="m 0,0 34.002,-274.001 v -242 L 114.003,-740 l 8.999,-152 103.001,-414 45.999,-215 105.001,-195.001 50.999,-223.999 71.999,-102.001 81.001,-144.001 116.998,-138.999 347,55.002 283,-25.003 212.002,21 211.001,-8.998 203.998,13.001 253.002,-17.001 232.997,8.999 -71.999,88.999 -45.999,144.002 -106.001,216 -23,166.998 -286.999,1138.003 -89,232.997 8.999,215 -29.999,234.001 -389,-38.001 -418.999,46 L 693.001,135.999 372,165.998 216.001,157.999 25,186.998 Z"
           style="fill:#bbbbbb;fill-opacity:1;fill-rule:nonzero;stroke:none"
           id="path214"
           inkscape:connector-curvature="0" />
      </g>
    </g>
    <g
       id="g216"
       transform="matrix(0.01185866,0,0,0.01173487,-8.654869,278.42705)">
      <g
         id="g218"
         transform="translate(9564.5859,-13063.328)">
        <path
           d="m 0,0 -9,152 -80,224 v 242 l -34,274 25,187 191,-29 156,8 321,-30 296,30 419,-46 389,38 30,-234 -9,-215 89,-233 287,-1138 23,-167 106,-216 46,-144 72,-89 -233,-9 -253,17 -204,-13 -211,9 -212,-21 -283,25 -347,-55 -117,139 -81,144 -72,102 -51,224 -105,195 -46,215 z"
           style="fill:none;stroke:#ffffff;stroke-width:1;stroke-linecap:butt;stroke-linejoin:miter;stroke-miterlimit:10;stroke-dasharray:none;stroke-opacity:0"
           id="path220"
           inkscape:connector-curvature="0" />
      </g>
    </g>
    <g
       id="g222"
       transform="matrix(0.01185866,0,0,0.01173487,-8.654879,278.42706)">
      <g
         id="g224"
         transform="translate(10885.585,-12432.329)">
        <path
           d="m 0,0 -121.998,-131 -85.001,-112.999 -62,-98.002 -50.999,-110 L -349,-544 l -12.998,-75.999 -5.003,-65.999 h -1193.997 l 15.997,-24 70.003,-84.001 71.999,-67.999 79.001,-56.002 82.997,-43 85.001,-31.998 98.002,-23 96.998,-11.002 62,110 67,90 61.001,61 -25.999,-44.999 -47,-99.002 L -895,-1046 l -48,-166.998 61.001,-104.001 89,-129 124.001,-148.001 135.999,-139.998 15.001,73.998 39.997,147.001 54.002,150.001 67,140.998 -13.002,12.002 -95.998,100.997 -65,86.001 -49.999,83 -34.002,79.002 -20,76.998 76.002,-60.001 126.997,-89 113.003,-61.997 89,-34.001 59.997,-12.002 -44,-61.997 -54.998,-100.001 -64,-150.001 115.998,18.001 165.002,42 169.72,56.574 L 106,-1222 l -88,93.999 -104.001,92.003 -152,114.999 L -415,-807 -334.999,-817.998 -176,-847.001 -88,-872 l 48.787,-22.9 -6.787,36.901 -24,173 -12.001,157 v 129 l 9.002,104.001 18,93.999 25,83 L 9.002,-217 56.001,-362.998 83,-480 103.001,-610 109.999,-723.999 108,-826.001 95.002,-944.999 l 20,19.001 71.999,52.998 62.001,31.002 67.999,23 89,14.997 85,2 62.001,-4.999 93.999,-17.001 -34.002,-4.999 -78.998,-22 -71.002,-32.998 -81.998,-52.002 -93.002,-82.001 -91,-106.997 -76.201,-110.401 13.201,4.401 56.002,-166.002 64,-162.998 45.999,-87 27.999,-34.002 33.002,-5.999 91.999,-23.999 -83,128 -70.999,130 -46,113.999 -20,79.998 37.001,-11.998 160.998,-44 138.999,-25.999 121.002,-12.002 h 87 v 2 l -32.002,88.999 -58.998,115.003 -90.999,139.999 38.997,13.001 103.001,42 97.002,54.998 62.997,50.999 47.003,53.002 L 979,-740 l 22,54.002 H 679.999 l -9.998,8.998 -113,120.002 L 453,-429.001 347,-281.001 229.001,-91 l -107,200 z m -459,75.002 -78.998,-176 -54.002,-147.001 -49.999,-174 -30.002,-141.002 V -457 l 12.002,119.002 21,113.999 47.999,167.001 52.002,131 -337.002,1 15.001,-175 26,-171.001 30.998,-133.999 43,-125.001 15.001,-33.002 -69.999,120.002 L -876,-308 -917,-178.999 -946.999,-38.001 -962,74.002 l -263,1 37.001,-126.001 53.999,-133.999 62,-115.003 62.001,-90.999 69.999,-87 82.001,-85.001 H -981 V -636 l 510.002,-2.999 V -565 l -126.001,4.999 -3,14.001 2,40.001 20,63 48,89 83,116.998 104.001,125.001 175,187.002 z m 429.001,-1020.001 10.998,18.001 -2,12.998 -18,19 -0.212,0.1 z m 147.72,-291.426 1.281,-1.576 1.796,2.602 z"
           style="fill:#595959;fill-opacity:1;fill-rule:nonzero;stroke:none"
           id="path226"
           inkscape:connector-curvature="0" />
      </g>
    </g>
    <g
       id="g228"
       transform="matrix(0.01185866,0,0,0.01173487,-8.654889,278.42707)">
      <g
         id="g230"
         transform="translate(10027.586,-12995.328)">
        <path
           d="m 0,0 h -123 v -73 l 510,-3 v 74 l -126,5 -3,14 2,40 20,63 48,89 83,117 104,125 175,187 H 399 L 320,462 266,315 216,141 186,0 v 106 l 12,119 21,114 48,167 52,131 -337,1 L -3,463 23,292 54,158 97,33 112,0 42,120 l -60,135 -41,129 -30,141 -15,112 -263,1 37,-126 54,-134 62,-115 62,-91 70,-87 z m 325,-1171 -136,140 -124,148 -89,129 -61,104 48,167 51,136 47,99 26,45 -61,-61 -67,-90 -62,-110 -97,11 -98,23 -85,32 -83,43 -79,56 -72,68 -70,84 -16,24 H 491 l 5,66 13,76 29,92 51,110 62,98 85,113 122,131 122,109 107,-200 118,-190 106,-148 104,-128 113,-120 10,-9 h 321 l -22,-54 -34,-53 -47,-53 -63,-51 -97,-55 -103,-42 -39,-13 91,-140 59,-115 32,-89 v -2 h -87 l -121,12 -139,26 -161,44 -37,12 20,-80 46,-114 71,-130 83,-128 -92,24 -33,6 -28,34 -46,87 -64,163 -56,166 -186,-62 -165,-42 -116,-18 64,150 55,100 44,62 -60,12 -89,34 -113,62 -127,89 -76,60 20,-77 34,-79 50,-83 65,-86 96,-101 13,-12 -67,-141 -54,-150 -40,-147 z m 118,927 177,-114 152,-115 104,-92 88,-94 13,-16 78,113 91,107 93,82 82,52 71,33 79,22 34,5 -94,17 -62,5 -85,-2 -89,-15 -68,-23 -62,-31 -72,-53 -20,-19 13,119 2,102 -7,114 -20,130 -27,117 -47,146 -39,99 -25,-83 -18,-94 -9,-104 V 35 l 12,-157 24,-173 16,-87 11,18 -2,13 -18,19 -49,23 -88,25 -159,29 z"
           style="fill:none;stroke:#ffffff;stroke-width:1;stroke-linecap:butt;stroke-linejoin:miter;stroke-miterlimit:10;stroke-dasharray:none;stroke-opacity:0"
           id="path232"
           inkscape:connector-curvature="0" />
      </g>
    </g>
    <g
       id="g234"
       transform="matrix(0.01185866,0,0,0.01173487,-8.654899,278.42708)">
      <g
         id="g236"
         transform="translate(10890.585,-12346.33)">
        <path
           d="M 0,0 -129,-122.998 -235.001,-245 l -74.998,-102.997 -61.001,-106 -46,-110 -26.999,-109 -8.002,-91.003 h -1193.997 l 15.997,-24 75.002,-89.999 66,-62.001 85,-59.997 75.998,-39.001 86.001,-32.002 98.002,-23 96.998,-10.998 62,110 67,89.999 62.001,61.001 -28.999,-48.999 -49.003,-104.001 -47.999,-132 -46,-162.002 64.001,-110 99.001,-139.998 110,-131 135.999,-140.002 13.998,68.003 42,153 60.001,160.999 61.001,130 -18.001,17.001 -82.001,87 -77.998,99.998 -47.999,82 -34.001,79.002 -19.001,71.999 76.002,-60.001 127.997,-89 117.002,-64 79.998,-29.999 64,-13.001 -32.998,-45 -63.001,-112.999 -66.999,-154 20,-2 h 99.998 l 99.002,11.998 119.998,26.003 140.002,44 41,-118.002 63.001,-155 45.999,-87 33.998,-47.999 25,-4.999 98.002,-25.003 -82.001,128 -70.999,130 -45,114.003 -20,79.998 37.001,-11.998 159.998,-44 139.999,-26.003 119.002,-11.998 h 87 l -32.002,90.999 -60.997,119.002 -87,135.999 110,41.001 80.997,41 74.002,48.999 61.001,55.998 47,63.001 L 915,-764 H 594.999 L 491.002,-657 373.999,-514.998 262,-358.999 151,-179 36.001,31.002 Z m -25,-853 -12.001,197 -2,173 5.003,102.001 11.998,98.002 17.001,72.999 -1,-13.002 -2,-172 L -1,-528 22,-730.998 50.999,-896 l 40,-183.998 4.003,5.998 48,52.003 67.999,47.999 78.998,34.998 79.001,20 88,13.002 104.001,3.999 -37.001,-7.999 -89,-27.999 -75.998,-36.001 -74.002,-48.999 -69,-62.001 -68.999,-87 -51.999,-88.999 -16.001,19 -106,122.998 -104.001,98.002 -87,62 -80.001,39.997 18,-1 60.001,-12.997 90,-36.002 121.001,-67 z M -551.999,-9.999 -635,-191.997 -685.998,-332 -736.001,-506 -766,-646.998 l 3,117.999 15.001,133.999 22,127.001 38.001,148.001 L -653,-9.999 h -316.998 l 14.997,-174 26.003,-171 31.998,-134 46,-130 12.002,-27.999 -65,112.999 -56.002,121.002 -43,113.999 -42,145.998 -29.999,143.001 h -243.999 l 36.997,-126 55.002,-134 53.998,-102.001 74.002,-111 80.998,-97.998 66.003,-66 h -123.001 V -721 h 544 v 74.002 h -140.002 l 3.003,41.001 17.997,65.999 31.002,70 66,109 100.998,136.999 150,173 40.001,41 z"
           style="fill:#ff1721;fill-opacity:1;fill-rule:nonzero;stroke:none"
           id="path238"
           inkscape:connector-curvature="0" />
      </g>
    </g>
    <g
       id="g240"
       transform="matrix(0.01185866,0,0,0.01173487,-8.654909,278.42709)">
      <g
         id="g242"
         transform="translate(9938.5859,-12993.328)">
        <path
           d="M 0,0 H -123 V -74 H 421 V 0 H 281 l 3,41 18,66 31,70 66,109 101,137 150,173 40,41 H 400 L 317,455 266,315 216,141 186,0 l 3,118 15,134 22,127 38,148 35,110 H -18 L -3,463 23,292 55,158 101,28 113,0 48,113 -8,234 -51,348 -93,494 -123,637 h -244 l 37,-126 55,-134 54,-102 74,-111 81,-98 z m 333,-1165 -136,140 -110,131 -99,140 -64,110 46,162 48,132 49,104 29,49 -62,-61 -67,-90 -62,-110 -97,11 -98,23 -86,32 -76,39 -85,60 -66,62 -75,90 -16,24 H 500 l 8,91 27,109 46,110 61,106 75,103 106,122 129,123 36,31 115,-210 111,-180 112,-156 117,-142 104,-107 h 320 l -30,-71 -47,-63 -61,-56 -74,-49 -81,-41 -110,-41 87,-136 61,-119 32,-91 h -87 l -119,12 -140,26 -160,44 -37,12 20,-80 45,-114 71,-130 82,-128 -98,25 -25,5 -34,48 -46,87 -63,155 -41,118 -140,-44 -120,-26 -99,-12 H 553 l -20,2 67,154 63,113 33,45 -64,13 -80,30 -117,64 -128,89 -76,60 19,-72 34,-79 48,-82 78,-100 82,-87 18,-17 -61,-130 -60,-161 -42,-153 z m 321,893 80,-40 87,-62 104,-98 106,-123 16,-19 52,89 69,87 69,62 74,49 76,36 89,28 37,8 -104,-4 -88,-13 -79,-20 -79,-35 -68,-48 -48,-52 -4,-6 -40,184 -29,165 -23,203 -7,133 2,172 1,13 -17,-73 -12,-98 -5,-102 2,-173 12,-197 16,-183 -121,67 -90,36 -60,13 z"
           style="fill:none;stroke:#ffffff;stroke-width:1;stroke-linecap:butt;stroke-linejoin:miter;stroke-miterlimit:10;stroke-dasharray:none;stroke-opacity:0"
           id="path244"
           inkscape:connector-curvature="0" />
      </g>
    </g>
    <g
       id="g246"
       transform="matrix(0.01185866,0,0,0.01173487,-8.654919,278.4271)">
      <g
         id="g248"
         transform="translate(9309.585,-11275.33)">
        <path
           d="M 0,0 V -40 L 60.001,-41 78.002,-47.999 83.001,-61 77.002,-89.999 37.001,-195 H -195 l -34.998,91.003 -3.003,22 4.003,18.997 11.998,12.002 19,8.998 48.999,2 V 0 h -218 v -40 l 36.002,-3.999 22.999,-9.999 19.001,-21 17.001,-35.001 L -71.999,-610 H -41 l 221.999,541.001 17.001,21 15.001,5.999 39.001,2 V 0 Z m -82.001,-478 -3.999,9.002 -4.999,12.998 -6.999,18.001 -8.003,20 -8.998,23 -10.002,23 -9.998,24.999 -8.999,24 -9.002,22 -8.998,21 -7.003,17.001 -4.999,14.001 -3.999,7.999 -1,2.999 h 4.999 13.001 19.001 23 26.999 26.999 25.999 24 19 H 17.001 22 l -2,-2.999 -2.999,-7.999 -5.999,-14.001 -7.003,-17.001 -8.998,-21 -9.002,-22 -10.998,-24 -9.999,-24.999 -10.002,-23 -8.998,-23 -9.002,-20 -6.999,-18.001 -5.999,-12.998 -4.003,-9.002 -1,-2.999 z"
           style="fill:#595959;fill-opacity:1;fill-rule:nonzero;stroke:none"
           id="path250"
           inkscape:connector-curvature="0" />
      </g>
    </g>
    <g
       id="g252"
       transform="matrix(0.01185866,0,0,0.01173487,-8.654929,278.42711)">
      <g
         id="g254"
         transform="translate(9228.5859,-11756.328)">
        <path
           d="m 0,0 -1,3 -4,9 -5,13 -7,18 -8,20 -9,23 -10,23 -10,25 -9,24 -9,22 -9,21 -7,17 -5,14 -4,8 -1,3 h 5 13 19 23 27 27 26 24 19 13 5 l -2,-3 -3,-8 L 92,218 85,201 76,180 67,158 56,134 46,109 36,86 27,63 18,43 11,25 5,12 1,3 Z m 9,-129 h 31 l 222,541 17,21 15,6 39,2 v 40 H 81 v -40 l 60,-1 18,-7 5,-13 -6,-29 -40,-105 h -232 l -35,91 -3,22 4,19 12,12 19,9 49,2 v 40 h -218 v -40 l 36,-4 23,-10 19,-21 17,-35 z"
           style="fill:none;stroke:#ffffff;stroke-width:1;stroke-linecap:butt;stroke-linejoin:miter;stroke-miterlimit:10;stroke-dasharray:none;stroke-opacity:0"
           id="path256"
           inkscape:connector-curvature="0" />
      </g>
    </g>
    <g
       id="g258"
       transform="matrix(0.01185866,0,0,0.01173487,-8.654939,278.42712)">
      <g
         id="g260"
         transform="translate(9969.584,-11275.33)">
        <path
           d="m 0,0 v -31.998 h 51.003 l 19,-7.002 6.999,-16.997 1,-392.001 L -77.998,0 h -25.999 l -165.002,-447.998 1,359.999 3,17 13.001,23 24,12.002 40.001,3.999 V 0 h -198 v -31.998 l 39.997,-3.999 25.003,-12.002 12.998,-23 3.999,-44.999 v -315.999 l -6.999,-17 -20,-7.003 h -49.999 v -31.998 h 171.001 l 133.999,374.999 131,-374.999 H 221 V -456 h -44 l -12.998,2 -12.002,10.002 -3.999,21 1,367.001 L 156,-39 l 20,7.002 h 45 V 0 Z"
           style="fill:#595959;fill-opacity:1;fill-rule:nonzero;stroke:none"
           id="path262"
           inkscape:connector-curvature="0" />
      </g>
    </g>
    <g
       id="g264"
       transform="matrix(0.01185866,0,0,0.01173487,-8.654949,278.42713)">
      <g
         id="g266"
         transform="translate(9588.5859,-11763.328)">
        <path
           d="M 0,0 H 171 L 305,375 436,0 h 166 v 32 h -44 l -13,2 -12,10 -4,21 1,367 7,17 20,7 h 45 v 32 H 381 v -32 h 51 l 19,-7 7,-17 1,-392 -156,448 H 277 L 112,40 l 1,360 3,17 13,23 24,12 40,4 v 32 H -5 v -32 l 40,-4 25,-12 13,-23 4,-45 V 56 L 70,39 50,32 H 0 Z"
           style="fill:none;stroke:#ffffff;stroke-width:1;stroke-linecap:butt;stroke-linejoin:miter;stroke-miterlimit:10;stroke-dasharray:none;stroke-opacity:0"
           id="path268"
           inkscape:connector-curvature="0" />
      </g>
    </g>
    <g
       id="g270"
       transform="matrix(0.01185866,0,0,0.01173487,-8.654959,278.42714)">
      <g
         id="g272"
         transform="translate(10258.586,-11276.328)">
        <path
           d="m 0,0 v -32.002 l 54.998,-1 15.001,-8.999 L 74.998,-64 V -422.999 L 72.998,-437 63,-451.002 36.001,-455.001 H 0 v -31.998 h 223.999 v 31.998 h -46 l -13.001,2 -7.999,4.999 -6.999,25.003 v 366.997 l 4,14.001 14.001,8.999 55.998,1 V 0 Z"
           style="fill:#595959;fill-opacity:1;fill-rule:nonzero;stroke:none"
           id="path274"
           inkscape:connector-curvature="0" />
      </g>
    </g>
    <g
       id="g276"
       transform="matrix(0.01185866,0,0,0.01173487,-8.654979,278.42715)">
      <g
         id="g278"
         transform="translate(10258.586,-11763.328)">
        <path
           d="m 0,0 h 224 v 32 h -46 l -13,2 -8,5 -7,25 v 367 l 4,14 14,9 56,1 v 32 H 0 v -32 l 55,-1 15,-9 5,-22 V 64 L 73,50 63,36 36,32 H 0 Z"
           style="fill:none;stroke:#ffffff;stroke-width:1;stroke-linecap:butt;stroke-linejoin:miter;stroke-miterlimit:10;stroke-dasharray:none;stroke-opacity:0"
           id="path280"
           inkscape:connector-curvature="0" />
      </g>
    </g>
    <g
       id="g282"
       transform="matrix(0.01185866,0,0,0.01173487,-8.654989,278.42716)">
      <g
         id="g284"
         transform="translate(10524.586,-11275.33)">
        <path
           d="M 0,0 V -31.998 H 42.001 L 58.998,-38.997 66,-55.998 65,-438 60.001,-447.998 46,-454.997 0,-456 v -30.999 H 364.998 L 373,-314.998 H 347.001 L 331,-385.997 l -19.001,-35.002 -24.999,-20 -42,-11.998 -58.002,-4.003 -28.998,2.003 -15.002,4.999 -6.998,9.999 -2,17.001 v 153.999 l 27.999,-0.999 21,-4 30.002,-16.001 8.999,-9.998 13.001,-37.001 2,-25 H 262 v 214.001 h -24.999 l -2,-24.003 -13.001,-36.998 -8.999,-12.001 -29.002,-13.998 -21,-4.003 -28.999,-1 1,185.002 3.999,13.998 11.002,7.002 24.999,4 65,-1 48,-9.002 22,-9.999 22,-22.999 18,-43.001 15.998,-68.999 h 23.003 L 379.999,0 Z"
           style="fill:#595959;fill-opacity:1;fill-rule:nonzero;stroke:none"
           id="path286"
           inkscape:connector-curvature="0" />
      </g>
    </g>
    <g
       id="g288"
       transform="matrix(0.01185866,0,0,0.01173487,-8.654999,278.42718)">
      <g
         id="g290"
         transform="translate(10524.586,-11762.328)">
        <path
           d="m 0,0 h 365 l 8,172 H 347 L 331,101 312,66 287,46 245,34 l -58,-4 -29,2 -15,5 -7,10 -2,17 v 154 l 28,-1 21,-4 30,-16 9,-10 13,-37 2,-25 h 25 v 214 h -25 l -2,-24 -13,-37 -9,-12 -29,-14 -21,-4 -29,-1 1,185 4,14 11,7 25,4 65,-1 48,-9 22,-10 22,-23 18,-43 16,-69 h 23 l -9,185 H 0 V 455 H 42 L 59,448 66,431 65,49 60,39 46,32 0,31 Z"
           style="fill:none;stroke:#ffffff;stroke-width:1;stroke-linecap:butt;stroke-linejoin:miter;stroke-miterlimit:10;stroke-dasharray:none;stroke-opacity:0"
           id="path292"
           inkscape:connector-curvature="0" />
      </g>
    </g>
    <g
       id="g294"
       transform="matrix(0.01185866,0,0,0.01173487,-8.655009,278.42719)">
      <g
         id="g296"
         transform="translate(11362.587,-11264.329)">
        <path
           d="m 0,0 -299.002,-410.001 1,310.003 9.002,29.999 17.997,18 29.003,8.999 23,1 v 29.002 H -406.002 V -42 l 35.001,-5.999 22,-13.002 11.998,-24.999 3,-42.001 v -317.998 l -7.999,-11.002 -19,-8.998 -45,-3 v -31.002 h 131 L -8.003,-132 l -1,-282 -7.998,-29.999 L -35.002,-461 -66,-467.999 l -22,-1 v -31.002 H 99.997 v 31.002 l -34.997,5 -22,13.001 -12.002,25 -3.999,42 V 0 Z"
           style="fill:#595959;fill-opacity:1;fill-rule:nonzero;stroke:none"
           id="path298"
           inkscape:connector-curvature="0" />
      </g>
    </g>
    <g
       id="g300"
       transform="matrix(0.01185866,0,0,0.01173487,-8.655019,278.4272)">
      <g
         id="g302"
         transform="translate(10956.586,-11764.328)">
        <path
           d="M 0,0 H 131 L 398,368 397,86 389,56 371,39 340,32 318,31 V 0 h 188 v 31 l -35,5 -22,13 -12,25 -4,42 V 500 H 406 L 107,90 l 1,310 9,30 18,18 29,9 23,1 v 29 H 0 v -29 l 35,-6 22,-13 12,-25 3,-42 V 54 L 64,43 45,34 0,31 Z"
           style="fill:none;stroke:#ffffff;stroke-width:1;stroke-linecap:butt;stroke-linejoin:miter;stroke-miterlimit:10;stroke-dasharray:none;stroke-opacity:0"
           id="path304"
           inkscape:connector-curvature="0" />
      </g>
    </g>
    <g
       id="g306"
       transform="matrix(0.01185866,0,0,0.01173487,-8.655029,278.42721)">
      <g
         id="g308"
         transform="translate(11622.585,-11272.329)">
        <path
           d="M 0,0 -45,-22 -69,-43 -93.999,4.999 h -22 l -2,-198 h 24 l 14.001,58.002 27.999,59.001 28.999,28.999 36.001,18 43,5.999 40.001,-6.999 30.998,-19 L 139.002,-63 152,-97.998 l 2,-21 -6.999,-31.003 L 128,-176 95.002,-198 -27.999,-241 -68,-263 l -18.001,-15.001 -11.998,-16.997 -9.002,-19.001 -4.999,-23.999 -2,-27.003 2,-29.999 17.001,-49.999 15.001,-20 18.997,-16.001 21,-11.998 24,-8.003 44.003,-0.999 47,10.002 27.999,14.997 23.999,21 23,-39.997 h 21 l 5.999,174.997 h -22 l -21,-66 -30.998,-47 L 84,-449.998 63,-462 l -23,-7.998 -44,-1 -29.998,10.998 -21,21 -11.002,29.999 -1,19 5.999,28.003 20,24.999 33.002,21.001 118.998,37.997 40.001,22 17.001,17.001 14.001,19 8.999,23 5.999,25.999 1,47 -4,32.002 -17.001,39.001 L 151,-22 113.999,-2 84,5.999 l -50.998,1 z"
           style="fill:#595959;fill-opacity:1;fill-rule:nonzero;stroke:none"
           id="path310"
           inkscape:connector-curvature="0" />
      </g>
    </g>
    <g
       id="g312"
       transform="matrix(0.01185866,0,0,0.01173487,-8.655039,278.42722)">
      <g
         id="g314"
         transform="translate(11553.586,-11315.328)">
        <path
           d="m 0,0 -25,48 h -22 l -2,-198 h 24 l 14,58 28,59 29,29 36,18 43,6 40,-7 31,-19 12,-14 13,-35 2,-21 -7,-31 -19,-26 -33,-22 -123,-43 -40,-22 -18,-15 -12,-17 -9,-19 -5,-24 -2,-27 2,-30 17,-50 15,-20 19,-16 21,-12 24,-8 44,-1 47,10 28,15 24,21 23,-40 h 21 l 6,175 h -22 l -21,-66 -31,-47 -19,-16 -21,-12 -23,-8 -44,-1 -30,11 -21,21 -11,30 -1,19 6,28 20,25 33,21 119,38 40,22 17,17 14,19 9,23 6,26 1,47 -4,32 -17,39 -26,31 -37,20 -30,8 -51,1 L 69,43 24,21 Z"
           style="fill:none;stroke:#ffffff;stroke-width:1;stroke-linecap:butt;stroke-linejoin:miter;stroke-miterlimit:10;stroke-dasharray:none;stroke-opacity:0"
           id="path316"
           inkscape:connector-curvature="0" />
      </g>
    </g>
  </g>
</svg>
